<?xml version="1.0" standalone="no"?>
<!DOCTYPE svg PUBLIC "-//W3C//DTD SVG 20010904//EN"
 "http://www.w3.org/TR/2001/REC-SVG-20010904/DTD/svg10.dtd">
<svg version="1.0" xmlns="http://www.w3.org/2000/svg"
 width="869.000000pt" height="242.000000pt" viewBox="0 0 869.000000 242.000000"
 preserveAspectRatio="xMidYMid meet">

<g transform="translate(0.000000,242.000000) scale(0.100000,-0.100000)"
fill="#000000" stroke="none">
<path d="M930 2351 c-223 -72 -529 -341 -722 -635 -114 -174 -169 -311 -169
-425 0 -88 16 -126 80 -183 l52 -47 -12 -75 c-11 -66 -11 -82 5 -138 21 -77
64 -146 123 -198 48 -42 135 -80 183 -80 26 0 33 -8 66 -70 105 -200 305 -351
550 -417 130 -34 352 -39 479 -9 172 40 304 108 417 214 142 134 226 308 231
480 2 75 -16 116 -56 131 -15 6 -28 26 -40 62 -17 50 -17 57 -3 91 21 50 20
83 -5 136 -27 56 -84 97 -169 123 l-67 20 -6 103 c-9 139 -35 220 -98 306 -9
13 -1 29 41 85 93 123 133 240 110 325 -42 157 -267 195 -535 91 l-79 -30 -67
64 c-37 36 -83 72 -103 80 -47 20 -138 18 -206 -4z m189 -75 c26 -14 116 -104
109 -111 -1 -1 -57 -39 -123 -83 -330 -221 -492 -395 -631 -676 -35 -72 -64
-135 -64 -142 0 -7 -22 -20 -50 -29 -28 -9 -71 -36 -100 -62 l-51 -46 -30 29
c-44 42 -59 76 -59 134 0 158 170 448 390 669 233 233 501 372 609 317z m252
-330 l-22 -24 60 -10 c58 -11 158 -48 150 -56 -2 -2 -24 0 -49 4 -73 14 -235
11 -317 -6 -98 -20 -192 -55 -267 -100 -32 -19 -60 -33 -62 -31 -2 2 26 34 63
71 63 63 210 172 220 163 2 -3 -2 -16 -8 -31 -7 -14 -10 -29 -7 -32 3 -3 29 6
57 21 55 27 140 53 180 54 l24 1 -22 -24z m348 -302 c37 -26 52 -79 62 -218 6
-77 15 -138 23 -151 8 -13 41 -28 87 -42 123 -36 171 -82 155 -147 -16 -64
-131 -146 -265 -190 -117 -39 -192 -48 -352 -44 -144 3 -148 3 -173 -21 -60
-56 -53 -157 13 -212 20 -16 67 -39 105 -51 58 -18 85 -20 180 -15 125 6 212
29 317 83 56 30 155 111 146 120 -1 2 -46 -19 -98 -46 -113 -58 -236 -96 -345
-105 -86 -7 -199 7 -245 31 -27 14 -66 60 -58 69 2 2 33 -3 69 -12 79 -18 228
-13 280 10 35 15 34 15 -62 16 -100 1 -244 23 -262 41 -7 7 -6 14 3 23 9 9 61
12 189 12 153 0 188 3 261 23 99 27 192 68 255 111 l45 31 19 -61 c13 -43 25
-64 43 -73 22 -11 24 -18 24 -77 0 -55 -6 -77 -39 -143 -98 -198 -308 -317
-561 -317 -160 1 -271 40 -362 129 -142 137 -151 398 -22 563 16 20 29 44 29
52 0 9 -21 39 -46 69 -69 79 -94 138 -94 224 0 108 34 172 114 219 41 24 51
25 182 24 153 -1 178 5 254 60 48 35 93 40 129 15z m-1168 -501 c42 -22 61
-40 86 -82 76 -127 48 -338 -51 -385 -101 -48 -259 19 -323 137 -27 49 -24
179 5 234 25 48 71 87 128 107 58 22 95 19 155 -11z"/>
<path d="M1648 1426 c-11 -26 3 -108 24 -133 16 -20 56 -16 63 6 6 20 -10 102
-26 132 -14 27 -47 24 -61 -5z"/>
<path d="M1292 1348 c-7 -7 -12 -19 -12 -28 0 -9 -17 -28 -37 -41 -47 -30 -59
-65 -18 -49 44 17 64 12 71 -16 4 -14 2 -30 -5 -37 -6 -6 -11 -14 -11 -17 0
-9 77 -7 86 3 4 4 20 7 36 7 35 0 37 17 3 30 -14 5 -25 16 -25 25 0 11 5 13
26 5 38 -15 46 -13 34 11 -7 11 -27 30 -46 41 -19 11 -34 26 -34 33 0 13 -36
45 -50 45 -3 0 -11 -5 -18 -12z"/>
<path d="M1697 1210 c-28 -40 12 -93 40 -54 18 24 16 38 -6 58 -18 16 -20 16
-34 -4z"/>
<path d="M1563 1153 c-9 -24 33 -56 58 -43 22 12 24 31 7 48 -17 17 -58 15
-65 -5z"/>
<path d="M397 1051 c-37 -33 -63 -90 -53 -116 9 -25 21 -17 39 24 20 44 60 61
96 41 36 -19 44 -47 27 -91 -21 -52 -20 -71 5 -103 16 -21 28 -26 53 -24 40 4
51 38 11 38 -36 0 -40 20 -17 86 14 42 17 65 11 88 -13 45 -50 77 -96 83 -34
4 -45 1 -76 -26z"/>
<path d="M4474 1676 c-137 -60 -71 -194 91 -184 98 6 152 59 129 127 -20 57
-146 89 -220 57z"/>
<path d="M6540 1668 c-111 -56 -63 -167 75 -176 163 -11 228 126 89 184 -49
21 -113 17 -164 -8z"/>
<path d="M4760 1225 l0 -455 125 0 125 0 0 455 0 455 -125 0 -125 0 0 -455z"/>
<path d="M5770 1225 l0 -455 125 0 125 0 0 191 c0 199 8 252 42 289 23 24 70
26 89 3 11 -12 15 -72 19 -247 l5 -231 125 0 125 0 -1 225 c0 227 -9 311 -41
375 -22 44 -54 75 -93 91 -42 18 -133 20 -175 4 -44 -16 -99 -74 -125 -131
-24 -50 -46 -67 -37 -26 32 138 37 178 35 266 l-3 96 -107 3 -108 3 0 -456z"/>
<path d="M2922 1477 c-54 -11 -110 -64 -142 -136 -23 -51 -49 -72 -35 -28 4
12 9 52 12 90 l5 67 -91 0 -91 0 0 -350 0 -350 120 0 120 0 0 183 c0 100 5
202 11 227 13 55 43 90 80 90 50 0 54 -14 59 -264 l5 -231 121 -3 122 -3 4
203 c3 178 6 208 23 242 24 48 44 61 77 53 43 -11 48 -42 48 -272 l0 -215 121
0 120 0 -3 268 c-3 263 -3 268 -28 316 -14 27 -42 63 -63 80 -34 27 -48 31
-112 34 -62 4 -80 1 -114 -19 -42 -23 -76 -65 -107 -131 -10 -21 -21 -38 -25
-38 -3 0 -9 19 -13 42 -17 108 -110 168 -224 145z"/>
<path d="M3970 1483 c-57 -6 -182 -34 -222 -50 l-38 -15 0 -104 c0 -57 1 -104
3 -104 2 0 26 11 53 24 121 58 265 75 304 36 11 -11 20 -31 20 -44 0 -23 -2
-24 -112 -28 -162 -6 -245 -47 -289 -143 -21 -45 -25 -129 -8 -172 40 -108
193 -156 315 -99 54 25 93 68 119 130 23 53 34 36 37 -59 l3 -80 95 0 95 0 3
165 c5 288 -28 424 -120 491 -58 41 -163 63 -258 52z m104 -429 c23 -9 20 -19
-16 -60 -51 -58 -121 -80 -152 -48 -34 34 -5 90 54 104 44 10 94 12 114 4z"/>
<path d="M5361 1479 c-205 -30 -316 -217 -267 -448 27 -127 94 -210 205 -252
81 -30 212 -24 296 14 95 44 95 44 95 169 0 68 -4 108 -10 108 -6 0 -34 -12
-63 -27 -47 -25 -62 -28 -160 -28 l-109 0 -29 33 c-56 62 -30 145 56 178 57
21 137 14 230 -21 37 -14 69 -25 71 -25 2 0 4 53 4 119 0 112 -1 120 -22 133
-64 42 -193 62 -297 47z"/>
<path d="M7191 1477 c-55 -11 -119 -73 -145 -139 -18 -48 -45 -70 -31 -25 4
12 9 52 12 90 l5 67 -91 0 -91 0 0 -350 0 -351 123 3 122 3 5 210 c4 188 7
214 25 245 26 44 71 52 101 19 17 -19 19 -40 22 -250 l4 -229 124 0 124 0 0
193 c0 105 5 209 11 230 21 76 82 102 116 50 16 -23 18 -57 21 -245 l3 -218
125 0 124 0 0 198 c-1 293 -25 395 -111 464 -25 20 -53 32 -90 37 -110 14
-178 -22 -230 -123 -19 -36 -37 -66 -40 -66 -4 0 -9 17 -13 38 -17 106 -115
171 -225 149z"/>
<path d="M8284 1461 c-47 -21 -109 -89 -124 -137 -7 -19 -16 -34 -22 -34 -6 0
-7 9 -3 23 4 12 9 53 12 90 l5 68 -93 -3 -94 -3 0 -440 0 -440 125 0 125 0 5
133 5 133 30 -32 c110 -117 311 -55 374 116 14 36 25 95 28 146 13 194 -60
345 -186 388 -51 17 -140 13 -187 -8z m75 -201 c29 -15 51 -84 51 -158 0 -122
-28 -172 -95 -172 -64 1 -99 61 -99 170 0 76 26 151 56 163 22 9 68 7 87 -3z"/>
<path d="M4430 1121 l0 -352 123 3 122 3 3 343 c2 270 0 342 -10 342 -7 0 -30
-5 -50 -11 -35 -9 -128 0 -174 18 -12 4 -14 -45 -14 -346z"/>
<path d="M6502 1122 l3 -347 125 0 125 0 3 344 2 343 -37 -8 c-49 -12 -160 -9
-196 5 l-27 11 2 -348z"/>
</g>
</svg>
